<svg height="512" viewBox="0 0 510 510" width="512" xmlns="http://www.w3.org/2000/svg"><path d="M66 446H46c-8.28 0-15-6.72-15-15s6.72-15 15-15h20v-34H46c-8.28 0-15-6.72-15-15s6.72-15 15-15h20v-34H46c-8.28 0-15-6.72-15-15s6.72-15 15-15h20v-64H15c-8.28 0-15 6.72-15 15v256c0 8.28 6.72 15 15 15h51.043c-.057-19.941-.043-6.955-.043-64zM314 15c0-8.28-6.72-15-15-15H171c-8.28 0-15 6.72-15 15v19h158zm93 185c-56.79 0-103 46.21-103 103 0 45.48 61.46 110.7 92.95 139.14a15.017 15.017 0 0020.1 0C449.27 413.04 510 348.22 510 303c0-56.79-46.21-103-103-103zm24 118h-48c-8.28 0-15-6.72-15-15s6.72-15 15-15h48c8.28 0 15 6.72 15 15s-6.72 15-15 15z"/><path d="M495 480H374v-18.21C333.222 423.718 274 358.625 274 303c0-61.95 42.57-114.14 100-128.85V79c0-8.28-6.72-15-15-15H111c-8.28 0-15 6.72-15 15v431h399c8.284 0 15-6.716 15-15s-6.716-15-15-15zM271 96h24c8.28 0 15 6.72 15 15s-6.72 15-15 15h-24c-8.28 0-15-6.72-15-15s6.72-15 15-15zm-72 286h-24c-8.28 0-15-6.72-15-15s6.72-15 15-15h24c8.28 0 15 6.72 15 15s-6.72 15-15 15zm0-64h-24c-8.28 0-15-6.72-15-15s6.72-15 15-15h24c8.28 0 15 6.72 15 15s-6.72 15-15 15zm0-64h-24c-8.28 0-15-6.72-15-15s6.72-15 15-15h24c8.28 0 15 6.72 15 15s-6.72 15-15 15zm0-64h-24c-8.28 0-15-6.72-15-15s6.72-15 15-15h24c8.28 0 15 6.72 15 15s-6.72 15-15 15zm0-64h-24c-8.28 0-15-6.72-15-15s6.72-15 15-15h24c8.28 0 15 6.72 15 15s-6.72 15-15 15zm57 49c0-8.28 6.72-15 15-15h24c8.28 0 15 6.72 15 15s-6.72 15-15 15h-24c-8.28 0-15-6.72-15-15z"/></svg>