<svg xmlns="http://www.w3.org/2000/svg" display="none" >
        <symbol id="ecoprof" viewBox="0 0 60 60">
          <g>
                <path  d="M30,0c16.6,0,30,13.4,30,30c0,16.6-13.4,30-30,30C13.4,60,0,46.6,0,30C0,13.4,13.4,0,30,0z M32.3,50.7c0.1,0.8,0.1,0.8,0.2,0.1c0-0.7,0.1-2-0.2-3.9c-0.3-2-1-4.5-1.9-6.7c-0.9-2.1-2.2-3.8-3.3-5.1c-1.1-1.2-2.1-2-3-2.6c-0.9-0.6-1.5-1-1.9-1.2c-0.3-0.2-0.3-0.2-0.3-0.2s0,0,0.6,0.2c0.6,0.2,1.9,0.6,2.8,1c1,0.4,1.6,0.8,1.9,1c0.3,0.2,0.3,0.2,0.3,0.2s0,0-0.1-0.7c-0.1-0.7-0.3-2.1-1.1-3.6c-0.8-1.5-2.1-3.2-2.8-4c-0.7-0.8-0.7-0.8-0.7-0.8s0,0,0.4,0.2c0.4,0.2,1.1,0.7,1.8,1.2c0.6,0.5,1,0.9,1.3,1.2c0.2,0.2,0.2,0.2,0.2,0.2s0,0,0.1-0.9c0.1-0.9,0.2-2.8,0.4-4.3c0.2-1.5,0.4-2.6,0.7-3.5c0.2-0.9,0.5-1.6,0.6-1.9c0.1-0.3,0.1-0.3,0.1-0.3s0,0-0.1,0.7c-0.1,0.7-0.2,2.1-0.2,3.6c0,1.5,0,3.2,0.1,4.3c0.1,1.1,0.2,1.6,0.3,1.9c0.1,0.3,0.1,0.3,0.1,0.3s0,0,0.3-0.3c0.3-0.3,1-0.9,1.9-1.4c0.9-0.5,2-0.9,2.5-1.1c0.6-0.2,0.6-0.2,0.6-0.2s0,0-0.4,0.3c-0.4,0.3-1.3,0.9-1.9,1.5c-0.7,0.6-1.2,1.3-1.6,2c-0.4,0.6-0.5,1.2-0.6,2.1c-0.1,0.8,0,1.9,0.1,2.6c0.1,0.7,0.2,1.1,0.3,1.3c0.1,0.2,0.1,0.2,0.1,0.2s0,0,0.2-0.3c0.2-0.3,0.7-0.8,1.4-1.3c0.7-0.5,1.6-0.9,2.4-1.2c0.8-0.3,1.4-0.4,1.8-0.4c0.3-0.1,0.3-0.1,0.3-0.1s0,0-0.5,0.2c-0.5,0.2-1.4,0.7-2.2,1.4c-0.8,0.7-1.4,1.5-1.8,2.4c-0.3,0.8-0.3,1.6,0,2.4c0.3,0.8,1,1.7,1.4,2.1c0.3,0.4,0.3,0.4,0.3,0.4s0,0,0.3-0.3c0.3-0.3,0.8-1,1.8-1.9c1-0.8,2.3-1.8,3.4-3.4c1.1-1.6,1.8-3.7,1.7-5.8c-0.1-2.1-1.2-4.2-2.4-6c-1.2-1.8-2.7-3.2-3.8-5.2c-1.1-2-1.9-4.4-2.4-5.9c-0.4-1.5-0.5-2-0.5-2.3c0-0.3,0-0.3,0-0.3s0,0-1.3,1.4c-1.3,1.4-3.9,4.2-6,7.2c-2.1,3-3.8,6.1-4.7,8.7c-0.9,2.6-1,4.8-0.3,6.7c0.7,1.9,2.3,3.5,4.1,4.9c1.8,1.4,3.8,2.6,5.3,4.1c1.5,1.5,2.5,3.4,3.1,5C31.9,48.4,32.2,49.9,32.3,50.7z"></path>
          </g>
        </symbol>
        
        <symbol id="certificate" viewBox="0 0 512 512">
          <g><path d="m258.773 181.506h-191.984c-4.142 0-7.499 3.358-7.499 7.499 0 4.142 3.357 7.499 7.499 7.499h191.985c4.142 0 7.499-3.358 7.499-7.499s-3.357-7.499-7.5-7.499z"/><path d="m258.773 234.202h-191.984c-4.142 0-7.499 3.358-7.499 7.499s3.357 7.499 7.499 7.499h191.985c4.142 0 7.499-3.358 7.499-7.499s-3.357-7.499-7.5-7.499z"/><path d="m258.773 286.897h-191.984c-4.142 0-7.499 3.358-7.499 7.499s3.357 7.499 7.499 7.499h191.985c4.142 0 7.499-3.358 7.499-7.499s-3.357-7.499-7.5-7.499z"/><path d="m266.273 347.093c0-4.142-3.357-7.499-7.499-7.499h-191.985c-4.142 0-7.499 3.358-7.499 7.499s3.357 7.499 7.499 7.499h191.985c4.142 0 7.499-3.357 7.499-7.499z"/><path d="m66.789 416.821c-4.142 0-7.499 3.358-7.499 7.499s3.357 7.499 7.499 7.499h96.238c4.142 0 7.499-3.358 7.499-7.499s-3.357-7.499-7.499-7.499z"/><path d="m345.194 92.853v-24.334c0-9.27-7.541-16.812-16.812-16.812h-153.967c-9.27 0-16.811 7.542-16.811 16.812v24.334c0 9.27 7.541 16.811 16.811 16.811h13.002c4.142 0 7.499-3.358 7.499-7.499 0-4.142-3.357-7.499-7.499-7.499h-13.002c-.999 0-1.812-.813-1.812-1.812v-24.335c0-.999.813-1.813 1.812-1.813h153.967c1 0 1.813.813 1.813 1.813v24.334c0 .999-.813 1.812-1.813 1.812h-105.905c-4.142 0-7.499 3.358-7.499 7.499 0 4.142 3.357 7.499 7.499 7.499h105.906c9.27.002 16.811-7.54 16.811-16.81z"/><path d="m401.268 457.296c-4.142 0-7.499 3.358-7.499 7.499v10.099c0 12.189-9.917 22.107-22.108 22.107h-331.762c-12.189 0-22.107-9.917-22.107-22.107v-360.466c0-1.623.19-3.215.529-4.764h68.283c14.256 0 25.854-11.598 25.854-25.854v-68.282c1.549-.339 3.14-.529 4.763-.529h254.439c12.19 0 22.108 9.917 22.108 22.107v99.842c0 4.142 3.357 7.499 7.499 7.499s7.499-3.358 7.499-7.499v-99.843c.001-20.459-16.645-37.105-37.105-37.105h-254.439c-9.911 0-19.23 3.86-26.238 10.868l-77.323 77.323c-7.008 7.008-10.867 16.326-10.867 26.238v360.466c0 20.46 16.645 37.105 37.105 37.105h331.762c20.46 0 37.106-16.646 37.106-37.105v-10.099c0-4.142-3.357-7.5-7.499-7.5zm-303.808-431.692v58.206c0 5.986-4.87 10.856-10.856 10.856h-58.206z"/><path d="m503.982 267.999c5.264-7.727 6.626-17.258 3.737-26.15s-9.594-15.802-18.394-18.958c-5.838-2.094-9.733-7.454-9.919-13.654-.283-9.345-4.784-17.857-12.349-23.353-7.563-5.495-17.051-7.144-26.023-4.526-5.958 1.738-12.255-.31-16.051-5.215-5.721-7.395-14.365-11.636-23.715-11.636-9.349 0-17.994 4.241-23.716 11.636-3.796 4.906-10.097 6.951-16.05 5.215-8.973-2.62-18.46-.969-26.025 4.526-7.564 5.496-12.063 14.007-12.347 23.352-.187 6.2-4.081 11.559-9.92 13.654-8.8 3.156-15.505 10.067-18.393 18.958-2.889 8.892-1.527 18.424 3.737 26.15 3.492 5.127 3.492 11.751 0 16.877-5.264 7.727-6.626 17.258-3.737 26.15 2.888 8.892 9.593 15.802 18.393 18.959 5.839 2.095 9.734 7.454 9.92 13.654.261 8.596 4.2 16.673 10.81 22.158 4.361 3.62 9.6 5.885 15.083 6.642v68.278c0 5.761 3.125 11.086 8.154 13.895 5.023 2.807 11.198 2.682 16.107-.341l27.505-16.932c.448-.277.715-.152.962 0l27.503 16.932c4.907 3.02 11.08 3.15 16.108.34 5.03-2.81 8.154-8.135 8.154-13.895v-68.279c5.481-.756 10.72-3.021 15.081-6.64 6.611-5.485 10.551-13.561 10.812-22.159.186-6.2 4.081-11.56 9.919-13.654 8.801-3.156 15.506-10.067 18.394-18.959 2.889-8.892 1.527-18.423-3.737-26.15-3.496-5.124-3.496-11.748-.003-16.875zm-66.867 173.499-27.504-16.932c-5.113-3.147-11.569-3.152-16.687 0l-27.504 16.931c-.626.381-1.399-.058-1.399-.782v-69.701c5.156-.597 10.268 1.501 13.531 5.718 5.723 7.394 14.367 11.635 23.717 11.635 9.349 0 17.993-4.241 23.714-11.635 3.264-4.218 8.377-6.315 13.532-5.718v69.701c0 .729-.783 1.164-1.4.783zm54.472-148.176c2.632 3.862 3.312 8.625 1.868 13.069s-4.795 7.898-9.194 9.476c-11.682 4.19-19.472 14.913-19.847 27.318-.133 4.361-2.05 8.292-5.397 11.07-3.763 3.123-8.859 4.301-13.781 2.865-11.913-3.476-24.52.62-32.116 10.434-2.859 3.695-7.18 5.815-11.853 5.815-4.672 0-8.993-2.119-11.854-5.815-5.799-7.496-14.52-11.656-23.623-11.656-2.818 0-5.674.399-8.49 1.221-4.97 1.448-10.051.234-13.784-2.865-3.347-2.778-5.264-6.709-5.395-11.069-.376-12.405-8.166-23.128-19.849-27.319-4.398-1.578-7.748-5.031-9.193-9.475-1.444-4.444-.764-9.208 1.868-13.07 6.987-10.257 6.987-23.51 0-33.767-2.632-3.862-3.312-8.626-1.868-13.071 1.444-4.444 4.795-7.898 9.193-9.475 11.683-4.191 19.473-14.914 19.849-27.319.141-4.671 2.389-8.925 6.17-11.671 3.779-2.747 8.519-3.571 13.008-2.263 11.91 3.477 24.52-.62 32.114-10.434 2.86-3.696 7.18-5.816 11.854-5.816 4.673 0 8.993 2.119 11.853 5.815 7.595 9.815 20.199 13.911 32.115 10.435 4.486-1.31 9.226-.485 13.007 2.262 3.781 2.746 6.031 7.001 6.171 11.671.376 12.405 8.166 23.129 19.848 27.319 4.399 1.577 7.749 5.031 9.194 9.475 1.444 4.444.764 9.209-1.868 13.07-6.989 10.258-6.989 23.513 0 33.77z"/><path d="m401.268 213.583c-34.658 0-62.854 28.196-62.854 62.854s28.196 62.854 62.854 62.854c34.657 0 62.853-28.196 62.853-62.854s-28.196-62.854-62.853-62.854zm0 110.71c-26.388 0-47.856-21.468-47.856-47.855s21.468-47.856 47.856-47.856 47.855 21.468 47.855 47.856-21.468 47.855-47.855 47.855z"/></g>
        </symbol>

        <symbol id="maps" viewBox="0 0 512 512">
          <g>
            <path d="M256,0C156.748,0,76,80.748,76,180c0,33.534,9.289,66.26,26.869,94.652l142.885,230.257    c2.737,4.411,7.559,7.091,12.745,7.091c0.04,0,0.079,0,0.119,0c5.231-0.041,10.063-2.804,12.75-7.292L410.611,272.22    C427.221,244.428,436,212.539,436,180C436,80.748,355.252,0,256,0z M384.866,256.818L258.272,468.186l-129.905-209.34    C113.734,235.214,105.8,207.95,105.8,180c0-82.71,67.49-150.2,150.2-150.2S406.1,97.29,406.1,180    C406.1,207.121,398.689,233.688,384.866,256.818z" data-original="#000000" style="" class=""/>
            <path d="M256,90c-49.626,0-90,40.374-90,90c0,49.309,39.717,90,90,90c50.903,0,90-41.233,90-90C346,130.374,305.626,90,256,90z     M256,240.2c-33.257,0-60.2-27.033-60.2-60.2c0-33.084,27.116-60.2,60.2-60.2s60.1,27.116,60.1,60.2    C316.1,212.683,289.784,240.2,256,240.2z"  data-original="#000000" style="" class=""/>
          </g>
        </symbol>

        
       
        <symbol id="delivery" viewBox="0 0 422.518 422.518">
          <g>
            <path d="M422.512,215.424c0-0.079-0.004-0.158-0.005-0.237c-0.116-5.295-4.368-9.514-9.727-9.514h-2.554l-39.443-76.258
	c-1.664-3.22-4.983-5.225-8.647-5.226l-67.34-0.014l2.569-20.364c0.733-8.138-1.783-15.822-7.086-21.638
	c-5.293-5.804-12.683-9.001-20.81-9.001h-209c-5.255,0-9.719,4.066-10.22,9.308l-2.095,16.778h119.078
	c7.732,0,13.836,6.268,13.634,14c-0.203,7.732-6.635,14-14.367,14H126.78c0.007,0.02,0.014,0.04,0.021,0.059H10.163
	c-5.468,0-10.017,4.432-10.16,9.9c-0.143,5.468,4.173,9.9,9.641,9.9H164.06c7.168,1.104,12.523,7.303,12.326,14.808
	c-0.216,8.242-7.039,14.925-15.267,14.994H54.661c-5.523,0-10.117,4.477-10.262,10c-0.145,5.523,4.215,10,9.738,10h105.204
	c7.273,1.013,12.735,7.262,12.537,14.84c-0.217,8.284-7.109,15-15.393,15H35.792v0.011H25.651c-5.523,0-10.117,4.477-10.262,10
	c-0.145,5.523,4.214,10,9.738,10h8.752l-3.423,35.818c-0.734,8.137,1.782,15.821,7.086,21.637c5.292,5.805,12.683,9.001,20.81,9.001
	h7.55C69.5,333.8,87.3,349.345,109.073,349.345c21.773,0,40.387-15.545,45.06-36.118h94.219c7.618,0,14.83-2.913,20.486-7.682
	c5.172,4.964,12.028,7.682,19.514,7.682h1.55c3.597,20.573,21.397,36.118,43.171,36.118c21.773,0,40.387-15.545,45.06-36.118h6.219
	c16.201,0,30.569-13.171,32.029-29.36l6.094-67.506c0.008-0.091,0.004-0.181,0.01-0.273c0.01-0.139,0.029-0.275,0.033-0.415
	C422.52,215.589,422.512,215.508,422.512,215.424z M109.597,329.345c-13.785,0-24.707-11.214-24.346-24.999
	c0.361-13.786,11.87-25.001,25.655-25.001c13.785,0,24.706,11.215,24.345,25.001C134.89,318.131,123.382,329.345,109.597,329.345z
	 M333.597,329.345c-13.785,0-24.706-11.214-24.346-24.999c0.361-13.786,11.87-25.001,25.655-25.001
	c13.785,0,24.707,11.215,24.345,25.001C358.89,318.131,347.382,329.345,333.597,329.345z M396.457,282.588
	c-0.52,5.767-5.823,10.639-11.58,10.639h-6.727c-4.454-19.453-21.744-33.882-42.721-33.882c-20.977,0-39.022,14.429-44.494,33.882
	h-2.059c-2.542,0-4.81-0.953-6.389-2.685c-1.589-1.742-2.337-4.113-2.106-6.676l12.609-139.691l28.959,0.006l-4.59,50.852
	c-0.735,8.137,1.78,15.821,7.083,21.637c5.292,5.806,12.685,9.004,20.813,9.004h56.338L396.457,282.588z"/>
	        </g>
        </symbol>

        <symbol id="maps-partners" viewBox="0 0 510 510">
          <g>
            <path d="m66 446h-20c-8.28 0-15-6.72-15-15s6.72-15 15-15h20v-34h-20c-8.28 0-15-6.72-15-15s6.72-15 15-15h20v-34h-20c-8.28 0-15-6.72-15-15s6.72-15 15-15h20v-64h-51c-8.28 0-15 6.72-15 15v256c0 8.28 6.72 15 15 15h51.043c-.057-19.941-.043-6.955-.043-64z"/><path d="m314 15c0-8.28-6.72-15-15-15h-128c-8.28 0-15 6.72-15 15v19h158z"/><path d="m407 200c-56.79 0-103 46.21-103 103 0 45.48 61.46 110.7 92.95 139.14 5.72 5.14 14.37 5.15 20.1 0 32.22-29.1 92.95-93.92 92.95-139.14 0-56.79-46.21-103-103-103zm24 118h-48c-8.28 0-15-6.72-15-15s6.72-15 15-15h48c8.28 0 15 6.72 15 15s-6.72 15-15 15z"/><path d="m495 480h-121v-18.21c-40.778-38.072-100-103.165-100-158.79 0-61.95 42.57-114.14 100-128.85v-95.15c0-8.28-6.72-15-15-15h-248c-8.28 0-15 6.72-15 15v431h399c8.284 0 15-6.716 15-15s-6.716-15-15-15zm-224-384h24c8.28 0 15 6.72 15 15s-6.72 15-15 15h-24c-8.28 0-15-6.72-15-15s6.72-15 15-15zm-72 286h-24c-8.28 0-15-6.72-15-15s6.72-15 15-15h24c8.28 0 15 6.72 15 15s-6.72 15-15 15zm0-64h-24c-8.28 0-15-6.72-15-15s6.72-15 15-15h24c8.28 0 15 6.72 15 15s-6.72 15-15 15zm0-64h-24c-8.28 0-15-6.72-15-15s6.72-15 15-15h24c8.28 0 15 6.72 15 15s-6.72 15-15 15zm0-64h-24c-8.28 0-15-6.72-15-15s6.72-15 15-15h24c8.28 0 15 6.72 15 15s-6.72 15-15 15zm0-64h-24c-8.28 0-15-6.72-15-15s6.72-15 15-15h24c8.28 0 15 6.72 15 15s-6.72 15-15 15zm57 49c0-8.28 6.72-15 15-15h24c8.28 0 15 6.72 15 15s-6.72 15-15 15h-24c-8.28 0-15-6.72-15-15z"/>
          </g>
        </symbol>

        <symbol id="vk" viewBox="0 0 97.75 97.75">
          <g>
            <path d="M48.875,0C21.883,0,0,21.882,0,48.875S21.883,97.75,48.875,97.75S97.75,75.868,97.75,48.875S75.867,0,48.875,0z    M73.667,54.161c2.278,2.225,4.688,4.319,6.733,6.774c0.906,1.086,1.76,2.209,2.41,3.472c0.928,1.801,0.09,3.776-1.522,3.883   l-10.013-0.002c-2.586,0.214-4.644-0.829-6.379-2.597c-1.385-1.409-2.67-2.914-4.004-4.371c-0.545-0.598-1.119-1.161-1.803-1.604   c-1.365-0.888-2.551-0.616-3.333,0.81c-0.797,1.451-0.979,3.059-1.055,4.674c-0.109,2.361-0.821,2.978-3.19,3.089   c-5.062,0.237-9.865-0.531-14.329-3.083c-3.938-2.251-6.986-5.428-9.642-9.025c-5.172-7.012-9.133-14.708-12.692-22.625   c-0.801-1.783-0.215-2.737,1.752-2.774c3.268-0.063,6.536-0.055,9.804-0.003c1.33,0.021,2.21,0.782,2.721,2.037   c1.766,4.345,3.931,8.479,6.644,12.313c0.723,1.021,1.461,2.039,2.512,2.76c1.16,0.796,2.044,0.533,2.591-0.762   c0.35-0.823,0.501-1.703,0.577-2.585c0.26-3.021,0.291-6.041-0.159-9.05c-0.28-1.883-1.339-3.099-3.216-3.455   c-0.956-0.181-0.816-0.535-0.351-1.081c0.807-0.944,1.563-1.528,3.074-1.528l11.313-0.002c1.783,0.35,2.183,1.15,2.425,2.946   l0.01,12.572c-0.021,0.695,0.349,2.755,1.597,3.21c1,0.33,1.66-0.472,2.258-1.105c2.713-2.879,4.646-6.277,6.377-9.794   c0.764-1.551,1.423-3.156,2.063-4.764c0.476-1.189,1.216-1.774,2.558-1.754l10.894,0.013c0.321,0,0.647,0.003,0.965,0.058   c1.836,0.314,2.339,1.104,1.771,2.895c-0.894,2.814-2.631,5.158-4.329,7.508c-1.82,2.516-3.761,4.944-5.563,7.471   C71.48,50.992,71.611,52.155,73.667,54.161z" fill="#484848" data-original="#000000" style=""/>
          </g>
        </symbol>

        <symbol id="instagram" viewBox="0 0 512 512">
          <g>
            <path xmlns="http://www.w3.org/2000/svg" d="m305 256c0 27.0625-21.9375 49-49 49s-49-21.9375-49-49 21.9375-49 49-49 49 21.9375 49 49zm0 0" fill="#484848" data-original="#000000" style=""/><path xmlns="http://www.w3.org/2000/svg" d="m370.59375 169.304688c-2.355469-6.382813-6.113281-12.160157-10.996094-16.902344-4.742187-4.882813-10.515625-8.640625-16.902344-10.996094-5.179687-2.011719-12.960937-4.40625-27.292968-5.058594-15.503906-.707031-20.152344-.859375-59.402344-.859375-39.253906 0-43.902344.148438-59.402344.855469-14.332031.65625-22.117187 3.050781-27.292968 5.0625-6.386719 2.355469-12.164063 6.113281-16.902344 10.996094-4.882813 4.742187-8.640625 10.515625-11 16.902344-2.011719 5.179687-4.40625 12.964843-5.058594 27.296874-.707031 15.5-.859375 20.148438-.859375 59.402344 0 39.25.152344 43.898438.859375 59.402344.652344 14.332031 3.046875 22.113281 5.058594 27.292969 2.359375 6.386719 6.113281 12.160156 10.996094 16.902343 4.742187 4.882813 10.515624 8.640626 16.902343 10.996094 5.179688 2.015625 12.964844 4.410156 27.296875 5.0625 15.5.707032 20.144532.855469 59.398438.855469 39.257812 0 43.90625-.148437 59.402344-.855469 14.332031-.652344 22.117187-3.046875 27.296874-5.0625 12.820313-4.945312 22.953126-15.078125 27.898438-27.898437 2.011719-5.179688 4.40625-12.960938 5.0625-27.292969.707031-15.503906.855469-20.152344.855469-59.402344 0-39.253906-.148438-43.902344-.855469-59.402344-.652344-14.332031-3.046875-22.117187-5.0625-27.296874zm-114.59375 162.179687c-41.691406 0-75.488281-33.792969-75.488281-75.484375s33.796875-75.484375 75.488281-75.484375c41.6875 0 75.484375 33.792969 75.484375 75.484375s-33.796875 75.484375-75.484375 75.484375zm78.46875-136.3125c-9.742188 0-17.640625-7.898437-17.640625-17.640625s7.898437-17.640625 17.640625-17.640625 17.640625 7.898437 17.640625 17.640625c-.003906 9.742188-7.898437 17.640625-17.640625 17.640625zm0 0" fill="#484848" data-original="#000000" style=""/><path xmlns="http://www.w3.org/2000/svg" d="m256 0c-141.363281 0-256 114.636719-256 256s114.636719 256 256 256 256-114.636719 256-256-114.636719-256-256-256zm146.113281 316.605469c-.710937 15.648437-3.199219 26.332031-6.832031 35.683593-7.636719 19.746094-23.246094 35.355469-42.992188 42.992188-9.347656 3.632812-20.035156 6.117188-35.679687 6.832031-15.675781.714844-20.683594.886719-60.605469.886719-39.925781 0-44.929687-.171875-60.609375-.886719-15.644531-.714843-26.332031-3.199219-35.679687-6.832031-9.8125-3.691406-18.695313-9.476562-26.039063-16.957031-7.476562-7.339844-13.261719-16.226563-16.953125-26.035157-3.632812-9.347656-6.121094-20.035156-6.832031-35.679687-.722656-15.679687-.890625-20.6875-.890625-60.609375s.167969-44.929688.886719-60.605469c.710937-15.648437 3.195312-26.332031 6.828125-35.683593 3.691406-9.808594 9.480468-18.695313 16.960937-26.035157 7.339844-7.480469 16.226563-13.265625 26.035157-16.957031 9.351562-3.632812 20.035156-6.117188 35.683593-6.832031 15.675781-.714844 20.683594-.886719 60.605469-.886719s44.929688.171875 60.605469.890625c15.648437.710937 26.332031 3.195313 35.683593 6.824219 9.808594 3.691406 18.695313 9.480468 26.039063 16.960937 7.476563 7.34375 13.265625 16.226563 16.953125 26.035157 3.636719 9.351562 6.121094 20.035156 6.835938 35.683593.714843 15.675781.882812 20.683594.882812 60.605469s-.167969 44.929688-.886719 60.605469zm0 0" fill="#484848" data-original="#000000" style=""/>

          </g>
        </symbol>
        

</svg>