<svg xmlns="http://www.w3.org/2000/svg" width="512" height="512" viewBox="0 0 64 64"><g xmlns="http://www.w3.org/2000/svg" fill="#1F70D8"><path d="M47 2H15a3.009 3.009 0 00-3 3v21H8a.937.937 0 00-.37.07l-5 2A1 1 0 002 29v14a1 1 0 00.45.83l3.01 2a.967.967 0 00.55.17H12v13a3.009 3.009 0 003 3h32a3.009 3.009 0 003-3V5a3.009 3.009 0 00-3-3zM11.9 34h.1v10H6.31L4 42.46V29.68L8.19 28H20a2 2 0 010 4h-9a1 1 0 00-1 1 3.009 3.009 0 01-3 3v2a5.009 5.009 0 004.9-4zM48 59a1 1 0 01-1 1H15a1 1 0 01-1-1V34h6a4 4 0 000-8h-6V5a1 1 0 011-1h32a1 1 0 011 1z" data-original="#000000"/><path d="M31 20a1 1 0 00.707-.293l5.657-5.657-1.414-1.414-4.95 4.95-2.122-2.122-1.414 1.414 2.829 2.829A1 1 0 0031 20z" data-original="#000000"/><path d="M40.41 10.09l-9-4a.979.979 0 00-.82 0l-9 4A.987.987 0 0021 11v6.41a8.979 8.979 0 003.02 6.72l6.32 5.62a1 1 0 001.32 0l6.32-5.62A8.979 8.979 0 0041 17.41V11a.987.987 0 00-.59-.91zM39 17.41a7.014 7.014 0 01-2.35 5.23L31 27.66l-5.65-5.02A7.014 7.014 0 0123 17.41v-5.76l8-3.56 8 3.56zM61 22h-3v-3a3 3 0 00-6 0v34a.986.986 0 00.03.24l2 8a1 1 0 001.94 0l2-8A.986.986 0 0058 53V24h2v9h2V23a1 1 0 00-1-1zm-6 34.88L54.28 54h1.44zM56 52h-2V24h2zm0-30h-2v-3a1 1 0 012 0zM18 38h4v2h-4zm6 0h20v2H24zm-6 6h4v2h-4zm6 0h20v2H24zm-6 6h4v2h-4zm6 0h20v2H24zm-6 6h4v2h-4zm6 0h20v2H24z" data-original="#000000"/></g></svg>