<svg width="200" height="54" fill="none" xmlns="http://www.w3.org/2000/svg"><g clip-path="url(#clip0)" fill-rule="evenodd" clip-rule="evenodd"><path d="M75.306 0a15.64 15.64 0 018.732 2.682A15.828 15.828 0 0189.822 9.8a15.97 15.97 0 01.887 9.157A15.892 15.892 0 0186.4 27.07a15.69 15.69 0 01-8.053 4.333c-3.05.61-6.21.296-9.084-.904a15.755 15.755 0 01-7.056-5.837 15.943 15.943 0 01-1.452-14.876 15.867 15.867 0 013.415-5.147 15.725 15.725 0 015.11-3.436A15.624 15.624 0 0175.306 0zm1.211 26.794c.059.424.059.424.084.06.034-.694-.003-1.39-.11-2.077a15.69 15.69 0 00-1.012-3.538 10.5 10.5 0 00-1.728-2.678 8.332 8.332 0 00-1.547-1.343c-.442-.301-.812-.517-.993-.628l-.189-.106.332.106c.324.11.98.327 1.48.53.352.148.69.325 1.013.53l.181.093-.063-.373a5.97 5.97 0 00-.56-1.932 12.393 12.393 0 00-1.466-2.12l-.345-.423.193.136c.202.118.606.36.93.597.233.193.452.403.655.627l.118.132.034-.492c.025-.496.084-1.466.18-2.258.077-.631.192-1.257.345-1.874.13-.466.252-.826.311-.995l.072-.183-.038.373c-.034.36-.093 1.08-.118 1.886-.025.805 0 1.695.038 2.267.024.343.067.684.13 1.021l.034.145.18-.157a5.58 5.58 0 01.989-.742c.43-.232.877-.433 1.337-.602l.294-.118-.223.157c-.354.25-.692.521-1.013.813a5.225 5.225 0 00-.84 1.034 2.41 2.41 0 00-.308 1.08 7.62 7.62 0 00.021 1.395c.022.236.083.467.181.682l.034.11.122-.144a4.94 4.94 0 01.735-.674 5.329 5.329 0 011.262-.622 4.73 4.73 0 01.916-.23l.168-.025-.24.119c-.41.212-.797.466-1.156.758a3.363 3.363 0 00-.916 1.246 1.63 1.63 0 000 1.272c.192.395.432.765.715 1.101l.18.23.143-.179c.279-.357.59-.688.93-.987a8.488 8.488 0 001.761-1.788c.61-.908.915-1.99.87-3.085a6.563 6.563 0 00-1.236-3.183c-.643-.924-1.395-1.695-1.98-2.712a14.205 14.205 0 01-1.261-3.144 4.505 4.505 0 01-.248-1.191V4.56l-.694.746a44.763 44.763 0 00-3.157 3.813 18.95 18.95 0 00-2.49 4.598c-.466 1.394-.525 2.543-.134 3.556a6.453 6.453 0 002.182 2.567c.942.746 1.993 1.37 2.78 2.174a7.213 7.213 0 011.63 2.666c.244.686.416 1.396.513 2.119l-.008-.005zM20.046 5.305H6.172v7.54h9.418a3.069 3.069 0 012.102.635 2.152 2.152 0 01.69 1.695 2.262 2.262 0 01-.678 1.695c-.454.445-1.169.661-2.123.661H6.164v8.742h14.361a3.17 3.17 0 012.178.666 2.319 2.319 0 01.736 1.813 2.267 2.267 0 01-.736 1.759 3.17 3.17 0 01-2.194.674H3.784c-1.337 0-2.298-.3-2.884-.899-.614-.597-.9-1.568-.9-2.902V4.31a5.193 5.193 0 01.395-2.191A2.444 2.444 0 011.623.889 5.198 5.198 0 013.784.505h16.262a3.174 3.174 0 012.195.661 2.238 2.238 0 01.714 1.73 2.258 2.258 0 01-.714 1.766c-.475.424-1.203.661-2.195.661v-.017zm34.281 16.197a8.014 8.014 0 01-.727 3.17 10.818 10.818 0 01-2.253 3.334 11.237 11.237 0 01-3.91 2.679 14.254 14.254 0 01-5.575 1.02 19.649 19.649 0 01-4.377-.457 12.394 12.394 0 01-3.586-1.44 11.753 11.753 0 01-2.943-2.543 15.13 15.13 0 01-2.064-3.216 17.726 17.726 0 01-1.261-3.814 20.808 20.808 0 01-.42-4.31c-.04-2.26.319-4.507 1.059-6.64.65-1.88 1.687-3.6 3.043-5.047a13.57 13.57 0 014.671-3.157A15.144 15.144 0 0141.694 0a14.322 14.322 0 016.592 1.475 12.007 12.007 0 014.419 3.674c1.025 1.453 1.538 2.822 1.538 4.131a2.715 2.715 0 01-.752 1.886 2.372 2.372 0 01-1.808.805 2.45 2.45 0 01-1.766-.568 7.175 7.175 0 01-1.324-1.945 9.39 9.39 0 00-2.834-3.39 6.83 6.83 0 00-4.02-1.127 7.241 7.241 0 00-3.377.708 7.302 7.302 0 00-2.676 2.195c-1.501 1.928-2.254 4.678-2.254 8.259a15.425 15.425 0 001.001 5.933 7.35 7.35 0 002.825 3.555 7.74 7.74 0 004.28 1.19 7.453 7.453 0 004.495-1.33 7.983 7.983 0 002.762-3.903 6.864 6.864 0 01.98-1.979 2.224 2.224 0 011.87-.77 2.605 2.605 0 011.896.783 2.544 2.544 0 01.786 1.92z" fill="#8ABE2F"/><path d="M108.57 18.849h-4.995v7.683c0 1.106-.248 1.932-.773 2.496a2.71 2.71 0 01-1.961.845 2.693 2.693 0 01-1.962-.845 3.617 3.617 0 01-.748-2.462V5.645c0-1.218.28-2.083.84-2.594.552-.517 1.422-.784 2.624-.784h6.996a18.504 18.504 0 014.78.483 7.13 7.13 0 012.859 1.534 6.88 6.88 0 011.825 2.632 9.387 9.387 0 01.631 3.504c0 2.772-.841 4.86-2.523 6.293-1.682 1.432-4.204 2.119-7.568 2.119l-.025.017zm-1.324-12.45h-3.671v8.318h3.671a10.752 10.752 0 003.233-.424 3.703 3.703 0 001.976-1.33 3.979 3.979 0 00.681-2.428 4.167 4.167 0 00-1.051-2.907c-.786-.805-2.392-1.212-4.839-1.212v-.017zm23.304 11.399h-1.9v8.734c0 1.152-.248 1.991-.749 2.542a2.514 2.514 0 01-1.967.814 2.48 2.48 0 01-2.014-.848c-.479-.563-.715-1.39-.715-2.495v-20.9c0-1.191.261-2.043.786-2.573.526-.53 1.383-.805 2.552-.805h8.833a26.28 26.28 0 013.145.17 7.551 7.551 0 012.35.635 6.673 6.673 0 012.241 1.539 6.538 6.538 0 011.476 2.317 7.67 7.67 0 01.525 2.819c0 2.03-.571 3.64-1.702 4.852-1.131 1.212-2.851 2.063-5.151 2.568a10.046 10.046 0 012.779 2.292 24.155 24.155 0 012.359 3.23 25.967 25.967 0 011.61 3.097c.292.598.489 1.239.585 1.898-.01.38-.131.747-.349 1.055a2.284 2.284 0 01-.929.848 2.88 2.88 0 01-1.358.297 2.636 2.636 0 01-1.539-.424 4.1 4.1 0 01-1.072-1.102c-.299-.424-.715-1.093-1.228-1.958l-2.182-3.674a21.102 21.102 0 00-2.102-3.06 5.05 5.05 0 00-1.892-1.44 6.212 6.212 0 00-2.396-.398l.004-.03zm3.145-11.4h-5.045v7.48h4.889c1.114.022 2.226-.09 3.313-.335a3.872 3.872 0 002.039-1.178 3.313 3.313 0 00.715-2.258 3.625 3.625 0 00-.572-2.017 3.543 3.543 0 00-1.585-1.272c-.635-.275-1.883-.423-3.754-.423v.004zm28.462-4.572c2.8 0 5.184.564 7.185 1.695a11.127 11.127 0 014.533 4.87 16.807 16.807 0 011.538 7.42 18.187 18.187 0 01-.84 5.716 12.326 12.326 0 01-2.523 4.475 11.228 11.228 0 01-4.158 2.882 14.984 14.984 0 01-5.638.995 14.53 14.53 0 01-5.65-1.03 11.048 11.048 0 01-4.171-2.894 12.168 12.168 0 01-2.523-4.5 18.246 18.246 0 01-.84-5.678c-.024-1.95.273-3.89.878-5.742a12.32 12.32 0 012.59-4.441 10.838 10.838 0 014.112-2.797 14.375 14.375 0 015.507-.97zm7.745 13.95a12.855 12.855 0 00-.976-5.182 7.27 7.27 0 00-2.728-3.314 7.767 7.767 0 00-7.08-.5 6.87 6.87 0 00-2.397 1.801 9.035 9.035 0 00-1.585 3.051 14.006 14.006 0 00-.584 4.145 14.222 14.222 0 00.584 4.186 8.694 8.694 0 001.636 3.11 6.911 6.911 0 002.417 1.836 7.178 7.178 0 008.024-1.353 7.27 7.27 0 001.633-2.368 12.719 12.719 0 001.035-5.424l.021.013zm26.28-9.259h-10.775v6.942h8.976a2.706 2.706 0 011.871.563 1.998 1.998 0 01.609 1.513 1.891 1.891 0 01-.622 1.5 2.713 2.713 0 01-1.858.564h-8.976v8.933c0 1.14-.261 1.979-.774 2.542a2.519 2.519 0 01-1.942.814 2.57 2.57 0 01-1.98-.848 3.7 3.7 0 01-.761-2.542V5.645a4.7 4.7 0 01.344-1.937c.22-.487.611-.875 1.098-1.09a4.546 4.546 0 011.892-.35h12.86a2.84 2.84 0 011.947.588 2 2 0 01.631 1.526 2.009 2.009 0 01-.631 1.551 2.777 2.777 0 01-1.947.584h.038z" fill="#1C1A19"/><path d="M6.126 45.97c.194-.242.437-.44.714-.577a1.85 1.85 0 01.812-.156 2.089 2.089 0 011.715.847c.47.68.706 1.498.669 2.327a3.69 3.69 0 01-.702 2.343 2.07 2.07 0 01-1.553.882 2.05 2.05 0 01-1.655-.666v2.894H5.09V50.97a2.026 2.026 0 01-1.505.67 2.038 2.038 0 01-1.715-.912 3.883 3.883 0 01-.681-2.377c-.036-.81.2-1.608.668-2.267a2.106 2.106 0 011.728-.847 1.825 1.825 0 011.505.733v-2.967h1.035v2.967zm1.324 4.835a1.274 1.274 0 001.11-.636 3.237 3.237 0 00.42-1.775 3.1 3.1 0 00-.395-1.695 1.266 1.266 0 00-1.085-.615 1.119 1.119 0 00-1.046.602 3.935 3.935 0 00-.337 1.86c0 1.513.442 2.267 1.337 2.267l-.004-.008zm-3.695 0c.903 0 1.357-.767 1.357-2.293 0-1.618-.475-2.436-1.429-2.436a1.166 1.166 0 00-1.047.614 3.984 3.984 0 00.021 3.505 1.265 1.265 0 001.098.61zm12.775-2.102h-4.573c.002.574.207 1.13.58 1.564a1.727 1.727 0 001.29.538c.357.013.707-.1.989-.322.296-.246.511-.577.618-.95l1.063.132a2.604 2.604 0 01-.941 1.479c-.5.358-1.103.539-1.716.513a2.756 2.756 0 01-2.16-.848 3.322 3.322 0 01-.762-2.318 3.549 3.549 0 01.753-2.352 2.607 2.607 0 012.102-.898c.446 0 .886.098 1.29.288.44.226.804.576 1.047 1.008.328.674.473 1.422.42 2.17v-.004zm-1.059-.848a1.848 1.848 0 00-.584-1.356 1.762 1.762 0 00-1.123-.423 1.602 1.602 0 00-1.202.491c-.318.35-.51.798-.546 1.272l3.456.016zm8.043 5.399h-.87v-1.741h-4.788v1.741h-.841v-2.606h.517a5.11 5.11 0 00.786-2.004c.202-.976.298-1.97.286-2.967v-.3h4.246v5.28h.664v2.597zm-1.681-2.606v-4.403h-2.38c-.073 1.978-.383 3.445-.929 4.403h3.309zm8.117-1.945h-4.573c0 .575.208 1.13.584 1.564a1.709 1.709 0 001.287.538c.356.013.706-.1.987-.322a1.92 1.92 0 00.623-.95l1.06.132a2.582 2.582 0 01-.955 1.479c-.5.358-1.103.539-1.716.513a2.742 2.742 0 01-2.156-.848 3.305 3.305 0 01-.765-2.318 3.549 3.549 0 01.752-2.352 2.611 2.611 0 012.102-.898c.445 0 .884.098 1.287.288.439.226.803.576 1.047 1.008a4.29 4.29 0 01.42 2.17l.017-.004zm-1.059-.848a1.83 1.83 0 00-.584-1.356 1.758 1.758 0 00-1.773-.305 1.62 1.62 0 00-.552.373c-.318.35-.51.798-.546 1.272l3.455.016zm3.289-1.695a1.905 1.905 0 011.74-.924 2.259 2.259 0 011.896.878 4.044 4.044 0 01-.072 4.661 2.404 2.404 0 01-1.896.886 1.853 1.853 0 01-1.572-.81v3.018h-1.06v-8.501h.942v.792h.021zm1.61 4.662a1.442 1.442 0 001.193-.61 2.84 2.84 0 00.475-1.801 2.9 2.9 0 00-.454-1.742 1.445 1.445 0 00-1.21-.6 1.433 1.433 0 00-1.173.672 2.985 2.985 0 00-.476 1.754 2.797 2.797 0 00.454 1.73 1.453 1.453 0 001.19.597zm9.274.691H41.98a1.931 1.931 0 01-.215-.755c-.612.57-1.412.89-2.245.899a2.254 2.254 0 01-1.526-.48 1.764 1.764 0 01-.538-1.27 1.774 1.774 0 01.538-1.272 3.32 3.32 0 011.862-.657l.963-.144a5.13 5.13 0 00.896-.216c0-.313 0-.542-.026-.66a1.162 1.162 0 00-.176-.425.94.94 0 00-.42-.339 2.28 2.28 0 00-.842-.131c-.37-.02-.737.069-1.059.254-.29.227-.484.558-.538.924l-1-.131a2.13 2.13 0 01.84-1.42 3.38 3.38 0 011.905-.466 3.115 3.115 0 011.61.322c.304.171.53.456.63.792.09.39.13.79.118 1.191v1.403a17 17 0 00.05 1.695c.039.299.136.587.287.847l-.03.039zm-1.37-2.7v-.386a10.83 10.83 0 01-1.98.424c-.787.11-1.178.424-1.178 1.009a.909.909 0 00.32.7c.26.197.582.295.908.274.489.006.965-.16 1.345-.47a1.85 1.85 0 00.585-1.56v.01zm7.794 2.7H48.45v-5.268h-2.624v3.577c.054.483-.058.971-.32 1.381a1.379 1.379 0 01-1.025.348c-.286 0-.56 0-.84-.038V50.6c.226 0 .42.026.525.026.298 0 .466-.06.525-.182.083-.292.115-.596.097-.899v-4.178h4.67l.03 6.145zm2.573-3.743h1.442a3.003 3.003 0 011.863.513 1.645 1.645 0 01.676 1.37 1.706 1.706 0 01-.605 1.334c-.48.373-1.077.56-1.682.526h-2.728v-6.145h1.034v2.403zm0 2.878h1.261c1.123 0 1.682-.335 1.682-.996 0-.66-.526-1.021-1.564-1.021h-1.358l-.02 2.017zm10.061.865h-1.038v-2.725h-2.872v2.725h-1.034v-6.145h1.034v2.542h2.871v-2.542h1.039v6.145zm6.866 0h-1.085a1.931 1.931 0 01-.215-.755 3.349 3.349 0 01-2.253.899 2.254 2.254 0 01-1.526-.48 1.764 1.764 0 01-.537-1.27 1.776 1.776 0 01.537-1.272 3.321 3.321 0 011.862-.657l.963-.144a5.09 5.09 0 00.896-.216c0-.313 0-.542-.026-.66a1.088 1.088 0 00-.176-.425.94.94 0 00-.42-.339 2.28 2.28 0 00-.841-.131 1.92 1.92 0 00-1.06.254c-.29.226-.483.558-.534.924l-1.005-.131a2.13 2.13 0 01.841-1.42 3.38 3.38 0 011.905-.466 3.116 3.116 0 011.61.322c.304.171.53.456.63.792.093.39.133.79.123 1.191v1.403c0 .847 0 1.428.046 1.695.038.299.135.587.286.847l-.021.039zm-1.371-2.7v-.386a10.83 10.83 0 01-1.98.424c-.786.11-1.177.424-1.177 1.009a.907.907 0 00.32.7c.26.197.582.295.907.274.49.006.965-.16 1.346-.47.395-.3.584-.847.584-1.56v.01zm7.45 2.7H74.04v-2.399h-.799a1.052 1.052 0 00-.773.263c-.141.128-.27.27-.383.423l-1.131 1.696h-1.287a99.915 99.915 0 011.3-1.92c.096-.144.217-.27.357-.373.144-.093.3-.166.462-.216a2.18 2.18 0 01-1.286-.623 1.742 1.742 0 01-.454-1.225 1.64 1.64 0 01.572-1.296 2.47 2.47 0 011.623-.492h2.825v6.162zm-1.026-3.264v-2.004h-1.682c-.84 0-1.261.31-1.261.958 0 .648.521 1.046 1.56 1.046h1.383zm10.847 1.141a2.511 2.511 0 01-.82 1.632 2.474 2.474 0 01-1.703.635 2.505 2.505 0 01-2.06-.873 3.57 3.57 0 01-.719-2.331 3.75 3.75 0 01.42-1.92c.23-.439.592-.793 1.035-1.008a3.094 3.094 0 011.324-.288 2.634 2.634 0 011.61.491 2.114 2.114 0 01.841 1.441l-1 .157a1.724 1.724 0 00-.5-.924 1.255 1.255 0 00-.892-.326 1.528 1.528 0 00-1.312.623 2.954 2.954 0 00-.454 1.729c-.034.616.12 1.228.442 1.754a1.64 1.64 0 001.112.613 1.623 1.623 0 001.213-.372c.274-.329.44-.736.475-1.165l.988.131zm6.222-.687h-4.58c.003.575.21 1.13.585 1.564a1.71 1.71 0 001.286.538c.357.014.707-.1.988-.322.3-.245.517-.576.623-.95l1.06.132a2.544 2.544 0 01-.955 1.479c-.499.36-1.103.54-1.716.513a2.75 2.75 0 01-2.156-.848 3.301 3.301 0 01-.761-2.318 3.55 3.55 0 01.748-2.352 2.616 2.616 0 012.102-.898c.445 0 .884.098 1.287.288.44.225.806.576 1.05 1.009.328.673.473 1.421.421 2.17l.017-.005zm-1.064-.848a1.707 1.707 0 00-.47-1.258 1.68 1.68 0 00-1.232-.517 1.6 1.6 0 00-1.203.492c-.32.349-.514.797-.55 1.27l3.455.014zm6.702-1.61h-1.955v5.268h-1.038v-5.268h-1.968v-.877h4.961v.877zM98.8 47.77h1.446a2.989 2.989 0 011.858.513 1.632 1.632 0 01.677 1.37 1.7 1.7 0 01-.605 1.334 2.51 2.51 0 01-1.682.526h-2.745v-6.145h1.05v2.403zm0 2.878h1.24c1.122 0 1.682-.335 1.682-.996 0-.66-.526-1.021-1.56-1.021H98.8v2.017zm13.407-5.28l-2.337 6.255a.097.097 0 010 .034 6.174 6.174 0 01-.774 1.695 1.454 1.454 0 01-1.261.648 2.62 2.62 0 01-.677-.11l-.097-.983c.189.06.386.094.584.097a.908.908 0 00.799-.326c.21-.362.374-.75.488-1.153l-2.312-6.157h1.122l1.43 4.021c.084.25.176.577.273.962h.025a8.59 8.59 0 01.37-1.27l1.333-3.696 1.034-.017zm5.6 6.145h-1.038v-2.471a6.108 6.108 0 01-1.762.288 2.085 2.085 0 01-1.56-.614 2.13 2.13 0 01-.597-1.534v-1.814h1.035v1.356a3.2 3.2 0 00.109.924c.078.244.238.452.454.589.236.167.519.252.807.241a4.947 4.947 0 001.514-.339v-2.771h1.038v6.145zm6.853-2.81h-4.574a2.39 2.39 0 00.584 1.564 1.714 1.714 0 001.286.538c.357.013.707-.1.988-.322.297-.246.512-.577.619-.95l1.063.132a2.585 2.585 0 01-.954 1.479 3.144 3.144 0 01-3.872-.34 3.303 3.303 0 01-.765-2.317 3.544 3.544 0 01.752-2.352 2.606 2.606 0 012.102-.898c.445 0 .884.098 1.287.288.439.226.803.576 1.047 1.008a4.29 4.29 0 01.42 2.17h.017zm-1.06-.848a1.813 1.813 0 00-.584-1.356 1.759 1.759 0 00-1.773-.305 1.61 1.61 0 00-.552.373c-.318.35-.511.798-.547 1.272l3.456.016zm2.948-1.322c.243-.367.565-.676.941-.902a2.346 2.346 0 011.144-.276 2.608 2.608 0 012.018.848c.528.619.8 1.418.761 2.233a3.471 3.471 0 01-.761 2.33 2.576 2.576 0 01-2.052.886 3.036 3.036 0 01-1.194-.216 2.226 2.226 0 01-.904-.695 3.309 3.309 0 01-.618-1.186 7.278 7.278 0 01-.214-1.983c0-.814.033-1.462.08-1.933a3.33 3.33 0 01.37-1.271c.198-.355.489-.648.841-.848.335-.225.718-.37 1.118-.423.51-.065 1.024-.093 1.539-.085h.559a.226.226 0 00.214-.17h.934a2.26 2.26 0 01-.148.59.844.844 0 01-.285.423.787.787 0 01-.421.195c-.278.041-.56.057-.841.047-.611-.01-1.221.033-1.824.131a1.36 1.36 0 00-.909.636 3.361 3.361 0 00-.357 1.695l.009-.026zm2.051 4.272a1.482 1.482 0 001.261-.648 2.85 2.85 0 00.492-1.742 2.559 2.559 0 00-.479-1.606 1.531 1.531 0 00-1.261-.59 1.5 1.5 0 00-1.299.636 2.817 2.817 0 00-.488 1.755 2.37 2.37 0 00.5 1.597 1.602 1.602 0 001.262.598h.012zm9.006.708h-1.039v-2.725h-2.871v2.725h-1.034v-6.145h1.034v2.542h2.871v-2.542h1.039v6.145zm2.611-3.743h1.442c.659-.04 1.312.14 1.858.513a1.634 1.634 0 01.681 1.37 1.678 1.678 0 01-.609 1.334 2.51 2.51 0 01-1.682.526h-2.745v-6.145h1.038l.017 2.403zm0 2.878h1.24c1.118 0 1.682-.335 1.682-.996 0-.66-.526-1.021-1.564-1.021h-1.358v2.017zm5.793.848h-1.038V45.35h1.038v6.145zm6.626.017h-1.261l-1.586-2.437-1.61 2.437h-1.261l2.228-3.204-2.047-2.941h1.261c.841 1.271 1.299 1.979 1.371 2.119l1.501-2.119h1.227l-2.102 2.881 2.279 3.264zm9.645 2.364h-.871v-2.364h-4.624v-6.145h1.034v5.28h2.754v-5.28h1.026v5.28h.681v3.23zm6.432-5.174h-4.574a2.39 2.39 0 00.584 1.564 1.708 1.708 0 001.287.538c.356.013.706-.1.988-.322.298-.246.515-.577.622-.95l1.059.132a2.575 2.575 0 01-.954 1.479 3.142 3.142 0 01-3.872-.34 3.303 3.303 0 01-.765-2.317 3.55 3.55 0 01.752-2.352 2.614 2.614 0 012.102-.898c.445-.001.884.097 1.287.288.439.226.803.576 1.047 1.008a4.29 4.29 0 01.42 2.17h.017zm-1.059-.848a1.83 1.83 0 00-.585-1.356 1.756 1.756 0 00-1.773-.305 1.63 1.63 0 00-.552.373c-.318.35-.511.798-.546 1.272l3.456.016zm7.248 3.658h-1.039v-2.725h-2.871v2.725h-1.039v-6.145h1.039v2.542h2.871v-2.542h1.039v6.145zm5.957-5.268h-1.955v5.268h-1.034v-5.268h-1.968v-.877h4.957v.877zm1.993-.085a1.909 1.909 0 011.74-.923 2.246 2.246 0 011.892.877 4.021 4.021 0 01-.071 4.661 2.4 2.4 0 01-1.892.886 1.865 1.865 0 01-1.577-.793h-.021v3.018h-1.038v-8.518h.942v.792h.025zm1.606 4.662a1.441 1.441 0 001.194-.61 2.817 2.817 0 00.475-1.801 2.9 2.9 0 00-.45-1.742 1.438 1.438 0 00-2.384.072 2.95 2.95 0 00-.479 1.754 2.796 2.796 0 00.454 1.73 1.457 1.457 0 001.19.597zm6.449-5.585a2.746 2.746 0 012.052.805 3.087 3.087 0 01.841 2.3c0 1.217-.295 2.069-.879 2.573a3.022 3.022 0 01-1.993.742 2.882 2.882 0 01-2.001-.767c-.559-.517-.841-1.331-.841-2.45 0-1.118.273-1.886.82-2.411a2.807 2.807 0 012.026-.792h-.025zm0 5.568a1.537 1.537 0 001.35-.661 2.99 2.99 0 00.462-1.738 2.559 2.559 0 00-.525-1.741 1.675 1.675 0 00-1.287-.589 1.596 1.596 0 00-1.286.601 2.68 2.68 0 00-.501 1.763c-.047.632.136 1.26.513 1.767a1.6 1.6 0 001.261.598h.013zm8.093-2.496A1.526 1.526 0 01200 49.796a1.539 1.539 0 01-.559 1.25c-.45.335-1.002.5-1.56.467h-2.897v-6.145h2.523c.841 0 1.429.17 1.753.504a1.58 1.58 0 01.488 1.127 1.476 1.476 0 01-.74 1.31h-.009zm-2.98-.36h1.24c.942 0 1.408-.288 1.408-.848a.69.69 0 00-.344-.674 2.376 2.376 0 00-1.026-.165h-1.262l-.016 1.687zm0 2.699h1.492c.954 0 1.43-.31 1.43-.911a.83.83 0 00-.19-.538.837.837 0 00-.492-.314 3.896 3.896 0 00-.84-.072h-1.409l.009 1.835z" fill="#727271"/></g><defs><clipPath id="clip0"><path fill="#fff" d="M0 0h200v54H0z"/></clipPath></defs></svg>